<svg width="800" height="800" viewBox="0 0 800 800" fill="none" xmlns="http://www.w3.org/2000/svg">
<path d="M400 25C236.25 25 97.5 130 46.25 275H753.75C702.5 130 563.75 25 400 25Z" fill="#ED4C5C"/>
<path d="M400 775C563.75 775 702.5 671.25 753.75 525H46.25C97.5 671.25 236.25 775 400 775Z" fill="#F2B200"/>
<path d="M46.25 275C32.5 313.75 25 356.25 25 400C25 443.75 32.5 486.25 46.25 525H753.75C767.5 486.25 775 443.75 775 400C775 356.25 767.5 313.75 753.75 275H46.25Z" fill="#2A5F9E"/>
<path d="M320.764 472.938C346.592 472.938 367.512 493.72 367.838 519.488L367.842 520.099C367.841 546.059 346.799 567.176 320.764 567.176C294.728 567.176 273.686 546.059 273.686 520.098C273.686 494.049 294.732 472.939 320.764 472.938ZM588.143 472.938C614.095 472.938 635.22 494.053 635.22 520.098C635.22 546.055 614.099 567.176 588.143 567.176C562.1 567.176 540.983 546.05 540.983 520.098C540.984 494.057 562.103 472.939 588.143 472.938ZM320.764 490.557C304.43 490.557 291.224 503.764 291.224 520.096C291.224 536.339 304.421 549.637 320.764 549.637C337.106 549.637 350.301 536.339 350.303 520.097V520.096C350.303 503.764 337.097 490.557 320.764 490.557ZM588.143 490.557C571.809 490.557 558.605 503.764 558.604 520.096C558.604 536.339 571.8 549.636 588.143 549.637C604.394 549.637 617.682 536.348 617.682 520.096C617.681 503.755 604.385 490.557 588.143 490.557ZM702 435.149V485.69C702 497.086 692.762 506.325 681.364 506.325H658.377C651.927 473.389 622.895 448.513 588.077 448.513C553.338 448.513 524.308 473.393 517.858 506.325H390.998C384.549 473.392 355.52 448.513 320.78 448.513C286.04 448.513 257.011 473.393 250.562 506.325H220.924C209.527 506.325 200.289 497.087 200.289 485.69V435.149H702ZM220.907 232H502.905C514.327 232 523.54 241.213 523.54 252.635V274.948H576.4C583.954 274.948 591.241 277.97 596.663 283.317V283.318L693.48 379.069C698.89 384.487 701.983 391.842 701.983 399.546V413.531H200.272L200.278 369.129V365.812L197.02 365.197L123.369 351.307L273.159 338.319L273.377 330.374L127.371 309.615L273.842 295.065L273.963 287.118L129.133 268.259L196.73 260.469L200.272 260.061V252.635C200.273 241.222 209.558 232 220.907 232ZM560.387 295.361C556.043 295.361 552.528 298.877 552.527 303.221V375.568C552.528 379.914 556.044 383.427 560.387 383.427H654.084C661.113 383.427 664.673 374.747 659.446 369.855L583.679 297.535L583.628 297.486L583.574 297.439C582.178 296.199 580.268 295.361 578.207 295.361H560.387Z" fill="black" stroke="white" stroke-width="8"/>
</svg>
